<?xml version="1.0" encoding="utf-8"?>
<!-- Generator: Adobe Illustrator 24.3.0, SVG Export Plug-In . SVG Version: 6.00 Build 0)  -->
<svg version="1.1" id="Layer_1" xmlns="http://www.w3.org/2000/svg" xmlns:xlink="http://www.w3.org/1999/xlink" x="0px" y="0px"
	 viewBox="0 0 2000 1000" style="enable-background:new 0 0 2000 1000;" xml:space="preserve">
<style type="text/css">
	.st0{opacity:0.5;}
	.st1{fill:#F7B83B;}
	.st2{opacity:0.8;fill:#FEC013;enable-background:new    ;}
</style>
<g id="XMLID_3274_" class="st0">
	<path id="XMLID_705_" class="st1" d="M311.8,374.4c2.6,0.7,5.3,1.3,7.9,2C317.3,375.4,314.6,374.7,311.8,374.4"/>
	<path id="XMLID_704_" class="st1" d="M79.1,737.5c0.6,1,1.3,2,2.2,2.8C80.5,739.4,79.8,738.5,79.1,737.5"/>
	<path id="XMLID_703_" class="st1" d="M1301.9,846.5c-4.1,3-8.2,6-12.4,9C1295.4,854,1300,850.7,1301.9,846.5"/>
	<path id="XMLID_702_" class="st1" d="M59.3,362c-9,5.5-17.1,12.3-24.1,20.7c3.4,4,9.6,6.8,16.9,7.1c11.7,0.6,21.9-5.3,22.8-13.1
		C75.7,369.8,68.9,363.7,59.3,362"/>
	<path id="XMLID_701_" class="st1" d="M140.1,365.8c-11.7-0.6-21.9,5.3-22.8,13.1c-0.9,7.8,7.9,14.6,19.6,15.2s21.9-5.3,22.8-13.1
		C160.6,373.2,151.9,366.3,140.1,365.8"/>
	<path id="XMLID_700_" class="st1" d="M225,370c-11.7-0.6-21.9,5.3-22.8,13.1c-0.9,7.8,7.9,14.6,19.6,15.2s21.9-5.3,22.8-13.1
		C245.5,377.4,236.7,370.6,225,370"/>
	<path id="XMLID_699_" class="st1" d="M309.9,374.2c-11.7-0.6-21.9,5.3-22.8,13.1c-0.9,7.8,7.9,14.6,19.6,15.2s21.9-5.3,22.8-13.1
		c0.6-5.4-3.4-10.4-9.9-13.1c-2.6-0.7-5.3-1.3-7.9-2C311.1,374.3,310.5,374.3,309.9,374.2"/>
	<path id="XMLID_698_" class="st1" d="M372.3,390c-0.1,0.5-0.3,1.1-0.3,1.6c-0.9,7.8,7.9,14.6,19.6,15.2c8.3,0.4,15.8-2.4,19.8-6.8
		C398.1,396.6,385.1,393.3,372.3,390"/>
	<path id="XMLID_697_" class="st1" d="M1087,436.8c-7.4,1.1-14.9,2.1-22.4,3.1c1.9,0.5,3.9,0.8,6,0.9
		C1076.9,441.1,1082.8,439.5,1087,436.8"/>
	<path id="XMLID_696_" class="st1" d="M1175.4,423.7c-12.9,1.9-26.2,3.9-39.6,5.9v0.1c-0.9,7.8,7.9,14.6,19.6,15.2
		s21.9-5.3,22.8-13.1C1178.6,428.9,1177.5,426.1,1175.4,423.7"/>
	<path id="XMLID_695_" class="st1" d="M1243.5,420.9c-11.7-0.6-21.9,5.3-22.8,13.1c-0.9,7.8,7.9,14.6,19.6,15.2s21.9-5.3,22.8-13.1
		S1255.2,421.5,1243.5,420.9"/>
	<path id="XMLID_694_" class="st1" d="M1328.3,425.2c-11.7-0.6-21.9,5.3-22.8,13.1c-0.9,7.8,7.9,14.6,19.6,15.2s21.9-5.3,22.8-13.1
		S1340.1,425.7,1328.3,425.2"/>
	<path id="XMLID_693_" class="st1" d="M1413.2,429.4c-11.7-0.6-21.9,5.3-22.8,13.1c-0.9,7.8,7.9,14.6,19.6,15.2s21.9-5.3,22.8-13.1
		S1424.9,430,1413.2,429.4"/>
	<path id="XMLID_692_" class="st1" d="M1475.4,449.8c0.5,2.3,1.8,4.4,3.8,6.2C1478,453.9,1476.8,451.8,1475.4,449.8"/>
	<path id="XMLID_691_" class="st1" d="M49.6,411.9c-11.7-0.6-21.9,5.3-22.8,13.1c-0.9,7.8,7.9,14.6,19.6,15.2s21.9-5.3,22.8-13.1
		C70.1,419.3,61.3,412.5,49.6,411.9"/>
	<path id="XMLID_690_" class="st1" d="M134.5,416.1c-11.7-0.6-21.9,5.3-22.8,13.1c-0.9,7.8,7.9,14.6,19.6,15.2s21.9-5.3,22.8-13.1
		C155,423.5,146.2,416.7,134.5,416.1"/>
	<path id="XMLID_689_" class="st1" d="M219.4,420.4c-11.7-0.6-21.9,5.3-22.8,13.1c-0.9,7.8,7.9,14.6,19.6,15.2s21.9-5.3,22.8-13.1
		C239.9,427.8,231.1,421,219.4,420.4"/>
	<path id="XMLID_688_" class="st1" d="M304.2,424.6c-11.7-0.6-21.9,5.3-22.8,13.1c-0.9,7.8,7.9,14.6,19.6,15.2s21.9-5.3,22.8-13.1
		S315.9,425.2,304.2,424.6"/>
	<path id="XMLID_687_" class="st1" d="M389.1,428.9c-11.7-0.6-21.9,5.3-22.8,13.1c-0.9,7.8,7.9,14.6,19.6,15.2s21.9-5.3,22.8-13.1
		S400.8,429.4,389.1,428.9"/>
	<path id="XMLID_686_" class="st1" d="M474,433.1c-11.7-0.6-21.9,5.3-22.8,13.1c-0.9,7.8,7.9,14.6,19.6,15.2s21.9-5.3,22.8-13.1
		S485.7,433.7,474,433.1"/>
	<path id="XMLID_685_" class="st1" d="M558.8,437.3c-11.7-0.6-21.9,5.3-22.8,13.1c-0.9,7.8,7.9,14.6,19.6,15.2
		c11.7,0.6,21.9-5.3,22.8-13.1C579.4,444.8,570.6,437.9,558.8,437.3"/>
	<path id="XMLID_684_" class="st1" d="M627.8,445.3c-3.9,2.4-6.5,5.7-6.9,9.4c-0.9,7.8,7.9,14.6,19.6,15.2
		c11.7,0.6,21.9-5.3,22.8-13.1c0.3-2.5-0.4-4.9-1.9-7C650.2,448.5,638.9,446.9,627.8,445.3"/>
	<path id="XMLID_683_" class="st1" d="M707.3,454.7c-0.8,1.3-1.3,2.7-1.5,4.2c-0.9,7.8,7.9,14.6,19.6,15.2
		c11.7,0.6,21.9-5.3,22.8-13.1c0.1-1.2,0-2.3-0.2-3.5C734.3,456.9,720.7,455.9,707.3,454.7"/>
	<path id="XMLID_682_" class="st1" d="M831.8,459.2c-13.2,0.2-26.5,0.2-39.8-0.1c-0.7,1.3-1.2,2.6-1.3,4
		c-0.9,7.8,7.9,14.6,19.6,15.2c11.7,0.6,21.9-5.3,22.8-13.1C833.3,463.2,832.8,461.1,831.8,459.2"/>
	<path id="XMLID_681_" class="st1" d="M883.1,457.6c-4.2,2.4-7.1,5.9-7.6,9.8c-0.9,7.8,7.9,14.6,19.6,15.2
		c11.7,0.6,21.9-5.3,22.8-13.1c0.6-5.6-3.7-10.7-10.5-13.3"/>
	<path id="XMLID_680_" class="st1" d="M983.2,458.6c-11.7-0.6-21.9,5.3-22.8,13.1c-0.9,7.8,7.9,14.6,19.6,15.2
		c11.7,0.6,21.9-5.3,22.8-13.1C1003.7,466,994.9,459.2,983.2,458.6"/>
	<path id="XMLID_679_" class="st1" d="M1068.1,462.8c-11.7-0.6-21.9,5.3-22.8,13.1c-0.9,7.8,7.9,14.6,19.6,15.2s21.9-5.3,22.8-13.1
		C1088.6,470.2,1079.8,463.4,1068.1,462.8"/>
	<path id="XMLID_678_" class="st1" d="M1152.9,467.1c-11.7-0.6-21.9,5.3-22.8,13.1c-0.9,7.8,7.9,14.6,19.6,15.2s21.9-5.3,22.8-13.1
		C1173.5,474.5,1164.7,467.6,1152.9,467.1"/>
	<path id="XMLID_677_" class="st1" d="M1237.8,471.3c-11.7-0.6-21.9,5.3-22.8,13.1c-0.9,7.8,7.9,14.6,19.6,15.2s21.9-5.3,22.8-13.1
		C1258.3,478.7,1249.5,471.9,1237.8,471.3"/>
	<path id="XMLID_676_" class="st1" d="M1322.7,475.5c-11.7-0.6-21.9,5.3-22.8,13.1c-0.9,7.8,7.9,14.6,19.6,15.2s21.9-5.3,22.8-13.1
		S1334.4,476.1,1322.7,475.5"/>
	<path id="XMLID_675_" class="st1" d="M1407.6,479.8c-11.7-0.6-21.9,5.3-22.8,13.1c-0.9,7.8,7.9,14.6,19.6,15.2s21.9-5.3,22.8-13.1
		C1428.1,487.2,1419.3,480.4,1407.6,479.8"/>
	<path id="XMLID_674_" class="st1" d="M1489.3,484c-10.3,0.5-18.8,6-19.6,13.1c-0.9,7.8,7.9,14.6,19.6,15.2c1.1,0.1,2.2,0,3.3,0
		C1492.2,502,1491.1,492.6,1489.3,484"/>
	<path id="XMLID_673_" class="st1" d="M44,462.3c-11.7-0.6-21.9,5.3-22.8,13.1c-0.9,7.8,7.9,14.6,19.6,15.2s21.9-5.3,22.8-13.1
		C64.5,469.7,55.7,462.9,44,462.3"/>
	<path id="XMLID_672_" class="st1" d="M128.8,466.5c-11.7-0.6-21.9,5.3-22.8,13.1c-0.9,7.8,7.9,14.6,19.6,15.2s21.9-5.3,22.8-13.1
		C149.3,473.9,140.6,467.1,128.8,466.5"/>
	<path id="XMLID_671_" class="st1" d="M213.7,470.8c-11.7-0.6-21.9,5.3-22.8,13.1c-0.9,7.8,7.9,14.6,19.6,15.2
		c11.7,0.6,21.9-5.3,22.8-13.1C234.2,478.2,225.4,471.3,213.7,470.8"/>
	<path id="XMLID_670_" class="st1" d="M298.6,475c-11.7-0.6-21.9,5.3-22.8,13.1c-0.9,7.8,7.9,14.6,19.6,15.2s21.9-5.3,22.8-13.1
		S310.3,475.6,298.6,475"/>
	<path id="XMLID_669_" class="st1" d="M383.5,479.2c-11.7-0.6-21.9,5.3-22.8,13.1c-0.9,7.8,7.9,14.6,19.6,15.2s21.9-5.3,22.8-13.1
		S395.2,479.8,383.5,479.2"/>
	<path id="XMLID_668_" class="st1" d="M468.3,483.5c-11.7-0.6-21.9,5.3-22.8,13.1c-0.9,7.8,7.9,14.6,19.6,15.2s21.9-5.3,22.8-13.1
		S480,484.1,468.3,483.5"/>
	<path id="XMLID_667_" class="st1" d="M553.2,487.7c-11.7-0.6-21.9,5.3-22.8,13.1c-0.9,7.8,7.9,14.7,19.6,15.2
		c11.7,0.6,21.9-5.3,22.8-13.1C573.7,495.1,564.9,488.3,553.2,487.7"/>
	<path id="XMLID_666_" class="st1" d="M638.1,492c-11.7-0.6-21.9,5.3-22.8,13.1c-0.9,7.8,7.9,14.7,19.6,15.2
		c11.7,0.6,21.9-5.3,22.8-13.1C658.6,499.4,649.8,492.6,638.1,492"/>
	<path id="XMLID_665_" class="st1" d="M722.9,496.2c-11.7-0.6-21.9,5.3-22.8,13.1c-0.9,7.8,7.9,14.6,19.6,15.2
		c11.7,0.6,21.9-5.3,22.8-13.1C743.4,503.6,734.7,496.8,722.9,496.2"/>
	<path id="XMLID_664_" class="st1" d="M807.8,500.5c-11.7-0.6-21.9,5.3-22.8,13.1c-0.9,7.8,7.9,14.7,19.6,15.2
		c11.7,0.6,21.9-5.3,22.8-13.1C828.3,507.9,819.5,501,807.8,500.5"/>
	<path id="XMLID_663_" class="st1" d="M892.7,504.7c-11.7-0.6-21.9,5.3-22.8,13.1c-0.9,7.8,7.9,14.7,19.6,15.2
		c11.7,0.6,21.9-5.3,22.8-13.1C913.2,512.1,904.4,505.3,892.7,504.7"/>
	<path id="XMLID_662_" class="st1" d="M977.6,508.9c-11.7-0.6-21.9,5.3-22.8,13.1c-0.9,7.8,7.9,14.6,19.6,15.2
		c11.7,0.6,21.9-5.3,22.8-13.1C998.1,516.3,989.3,509.5,977.6,508.9"/>
	<path id="XMLID_661_" class="st1" d="M1062.4,513.2c-11.7-0.6-21.9,5.3-22.8,13.1s7.9,14.6,19.6,15.2c11.7,0.6,21.9-5.3,22.8-13.1
		C1082.9,520.6,1074.1,513.8,1062.4,513.2"/>
	<path id="XMLID_660_" class="st1" d="M1147.3,517.4c-11.7-0.6-21.9,5.3-22.8,13.1s7.9,14.6,19.6,15.2c11.7,0.6,21.9-5.3,22.8-13.1
		S1159,518,1147.3,517.4"/>
	<path id="XMLID_659_" class="st1" d="M1232.2,521.7c-11.7-0.6-21.9,5.3-22.8,13.1s7.9,14.6,19.6,15.2c11.7,0.6,21.9-5.3,22.8-13.1
		C1252.7,529.1,1243.9,522.3,1232.2,521.7"/>
	<path id="XMLID_658_" class="st1" d="M1317,525.9c-11.7-0.6-21.9,5.3-22.8,13.1s7.9,14.7,19.6,15.2c11.7,0.6,21.9-5.3,22.8-13.1
		C1337.6,533.3,1328.8,526.5,1317,525.9"/>
	<path id="XMLID_657_" class="st1" d="M1401.9,530.2c-11.7-0.6-21.9,5.3-22.8,13.1s7.9,14.7,19.6,15.2c11.7,0.6,21.9-5.3,22.8-13.1
		C1422.4,537.6,1413.6,530.7,1401.9,530.2"/>
	<path id="XMLID_656_" class="st1" d="M1486.8,534.4c-11.7-0.6-21.9,5.3-22.8,13.1s7.9,14.7,19.6,15.2c2,0.1,3.9,0,5.7-0.2
		c0.6-3.9,1.1-7.9,1.5-11.9c0.6-5.4,1.1-10.5,1.4-15.5C1490.5,534.8,1488.7,534.5,1486.8,534.4"/>
	<path id="XMLID_655_" class="st1" d="M38.3,512.6c-11.7-0.6-21.9,5.3-22.8,13.1s7.9,14.6,19.6,15.2c11.7,0.6,21.9-5.3,22.8-13.1
		C58.8,520.1,50,513.2,38.3,512.6"/>
	<path id="XMLID_654_" class="st1" d="M123.2,516.9c-11.7-0.6-21.9,5.3-22.8,13.1s7.9,14.6,19.6,15.2c11.7,0.6,21.9-5.3,22.8-13.1
		C143.7,524.3,134.9,517.5,123.2,516.9"/>
	<path id="XMLID_653_" class="st1" d="M208.1,521.1c-11.7-0.6-21.9,5.3-22.8,13.1c-0.9,7.8,7.9,14.6,19.6,15.2
		c11.7,0.6,21.9-5.3,22.8-13.1C228.6,528.5,219.8,521.7,208.1,521.1"/>
	<path id="XMLID_652_" class="st1" d="M292.9,525.4c-11.7-0.6-21.9,5.3-22.8,13.1s7.9,14.6,19.6,15.2c11.7,0.6,21.9-5.3,22.8-13.1
		C313.4,532.8,304.7,526,292.9,525.4"/>
	<path id="XMLID_651_" class="st1" d="M377.8,529.6c-11.7-0.6-21.9,5.3-22.8,13.1s7.9,14.6,19.6,15.2c11.7,0.6,21.9-5.3,22.8-13.1
		S389.5,530.2,377.8,529.6"/>
	<path id="XMLID_650_" class="st1" d="M462.7,533.9c-11.7-0.6-21.9,5.3-22.8,13.1s7.9,14.6,19.6,15.2c11.7,0.6,21.9-5.3,22.8-13.1
		C483.2,541.3,474.4,534.4,462.7,533.9"/>
	<path id="XMLID_649_" class="st1" d="M547.5,538.1c-11.7-0.6-21.9,5.3-22.8,13.1c-0.9,7.8,7.9,14.6,19.6,15.2
		c11.7,0.6,21.9-5.3,22.8-13.1C568.1,545.5,559.3,538.7,547.5,538.1"/>
	<path id="XMLID_648_" class="st1" d="M632.4,542.3c-11.7-0.6-21.9,5.3-22.8,13.1c-0.9,7.8,7.9,14.6,19.6,15.2
		c11.7,0.6,21.9-5.3,22.8-13.1C652.9,549.8,644.1,542.9,632.4,542.3"/>
	<path id="XMLID_647_" class="st1" d="M717.3,546.6c-11.7-0.6-21.9,5.3-22.8,13.1c-0.9,7.8,7.9,14.6,19.6,15.2
		c11.7,0.6,21.9-5.3,22.8-13.1C737.8,554,729,547.2,717.3,546.6"/>
	<path id="XMLID_646_" class="st1" d="M802.2,550.8c-11.7-0.6-21.9,5.3-22.8,13.1c-0.9,7.8,7.9,14.6,19.6,15.2
		c11.7,0.6,21.9-5.3,22.8-13.1C822.7,558.2,813.9,551.4,802.2,550.8"/>
	<path id="XMLID_645_" class="st1" d="M887,555.1c-11.7-0.6-21.9,5.3-22.8,13.1c-0.9,7.8,7.9,14.6,19.6,15.2
		c11.7,0.6,21.9-5.3,22.8-13.1C907.5,562.5,898.8,555.7,887,555.1"/>
	<path id="XMLID_644_" class="st1" d="M971.9,559.3c-11.7-0.6-21.9,5.3-22.8,13.1c-0.9,7.8,7.9,14.6,19.6,15.2
		c11.7,0.6,21.9-5.3,22.8-13.1C992.4,566.7,983.6,559.9,971.9,559.3"/>
	<path id="XMLID_643_" class="st1" d="M1056.8,563.6c-11.7-0.6-21.9,5.3-22.8,13.1s7.9,14.6,19.6,15.2c11.7,0.6,21.9-5.3,22.8-13.1
		S1068.5,564.2,1056.8,563.6"/>
	<path id="XMLID_642_" class="st1" d="M1141.7,567.8c-11.7-0.6-21.9,5.3-22.8,13.1s7.9,14.6,19.6,15.2c11.7,0.6,21.9-5.3,22.8-13.1
		S1153.4,568.4,1141.7,567.8"/>
	<path id="XMLID_641_" class="st1" d="M1226.5,572.1c-11.7-0.6-21.9,5.3-22.8,13.1s7.9,14.6,19.6,15.2c11.7,0.6,21.9-5.3,22.8-13.1
		S1238.2,572.6,1226.5,572.1"/>
	<path id="XMLID_640_" class="st1" d="M1311.4,576.3c-11.7-0.6-21.9,5.3-22.8,13.1s7.9,14.6,19.6,15.2c11.7,0.6,21.9-5.3,22.8-13.1
		S1323.1,576.9,1311.4,576.3"/>
	<path id="XMLID_639_" class="st1" d="M1396.3,580.5c-11.7-0.6-21.9,5.3-22.8,13.1s7.9,14.6,19.6,15.2c11.7,0.6,21.9-5.3,22.8-13.1
		S1408,581.1,1396.3,580.5"/>
	<path id="XMLID_638_" class="st1" d="M1481.1,584.8c-11.7-0.6-21.9,5.3-22.8,13.1s7.9,14.6,19.6,15.2c2.8-9.2,5.2-18.5,7.2-27.9
		C1483.9,585,1482.5,584.9,1481.1,584.8"/>
	<path id="XMLID_637_" class="st1" d="M32.7,563c-11.7-0.6-21.9,5.3-22.8,13.1s7.9,14.6,19.6,15.2c11.7,0.6,21.9-5.3,22.8-13.1
		C53.2,570.4,44.4,563.6,32.7,563"/>
	<path id="XMLID_636_" class="st1" d="M117.5,567.3c-11.7-0.6-21.9,5.3-22.8,13.1s7.9,14.6,19.6,15.2c11.7,0.6,21.9-5.3,22.8-13.1
		C138,574.7,129.3,567.9,117.5,567.3"/>
	<path id="XMLID_635_" class="st1" d="M202.4,571.5c-11.7-0.6-21.9,5.3-22.8,13.1c-0.9,7.8,7.9,14.6,19.6,15.2
		c11.7,0.6,21.9-5.3,22.8-13.1C222.9,578.9,214.1,572.1,202.4,571.5"/>
	<path id="XMLID_634_" class="st1" d="M287.3,575.8c-11.7-0.6-21.9,5.3-22.8,13.1s7.9,14.6,19.6,15.2c11.7,0.6,21.9-5.3,22.8-13.1
		S299,576.3,287.3,575.8"/>
	<path id="XMLID_633_" class="st1" d="M372.2,580c-11.7-0.6-21.9,5.3-22.8,13.1s7.9,14.6,19.6,15.2c11.7,0.6,21.9-5.3,22.8-13.1
		S383.9,580.6,372.2,580"/>
	<path id="XMLID_632_" class="st1" d="M457,584.2c-11.7-0.6-21.9,5.3-22.8,13.1s7.9,14.6,19.6,15.2c11.7,0.6,21.9-5.3,22.8-13.1
		C477.5,591.6,468.7,584.8,457,584.2"/>
	<path id="XMLID_631_" class="st1" d="M541.9,588.5c-11.7-0.6-21.9,5.3-22.8,13.1c-0.9,7.8,7.9,14.6,19.6,15.2
		c11.7,0.6,21.9-5.3,22.8-13.1S553.6,589.1,541.9,588.5"/>
	<path id="XMLID_630_" class="st1" d="M626.8,592.7c-11.7-0.6-21.9,5.3-22.8,13.1c-0.9,7.8,7.9,14.6,19.6,15.2
		c11.7,0.6,21.9-5.3,22.8-13.1C647.3,600.1,638.5,593.3,626.8,592.7"/>
	<path id="XMLID_629_" class="st1" d="M711.6,597c-11.7-0.6-21.9,5.3-22.8,13.1c-0.9,7.8,7.9,14.6,19.6,15.2
		c11.7,0.6,21.9-5.3,22.8-13.1C732.2,604.4,723.4,597.6,711.6,597"/>
	<path id="XMLID_628_" class="st1" d="M796.5,601.2c-11.7-0.6-21.9,5.3-22.8,13.1c-0.9,7.8,7.9,14.6,19.6,15.2
		c11.7,0.6,21.9-5.3,22.8-13.1C817,608.6,808.2,601.8,796.5,601.2"/>
	<path id="XMLID_627_" class="st1" d="M881.4,605.5c-11.7-0.6-21.9,5.3-22.8,13.1c-0.9,7.8,7.9,14.6,19.6,15.2
		c11.7,0.6,21.9-5.3,22.8-13.1C901.9,612.9,893.1,606,881.4,605.5"/>
	<path id="XMLID_626_" class="st1" d="M966.3,609.7c-11.7-0.6-21.9,5.3-22.8,13.1c-0.9,7.8,7.9,14.6,19.6,15.2
		c11.7,0.6,21.9-5.3,22.8-13.1C986.8,617.1,978,610.3,966.3,609.7"/>
	<path id="XMLID_625_" class="st1" d="M1051.1,613.9c-11.7-0.6-21.9,5.3-22.8,13.1s7.9,14.6,19.6,15.2c11.7,0.6,21.9-5.3,22.8-13.1
		C1071.6,621.3,1062.9,614.5,1051.1,613.9"/>
	<path id="XMLID_624_" class="st1" d="M1136,618.2c-11.7-0.6-21.9,5.3-22.8,13.1s7.9,14.6,19.6,15.2c11.7,0.6,21.9-5.3,22.8-13.1
		C1156.5,625.6,1147.7,618.8,1136,618.2"/>
	<path id="XMLID_623_" class="st1" d="M1220.9,622.4c-11.7-0.6-21.9,5.3-22.8,13.1s7.9,14.6,19.6,15.2c11.7,0.6,21.9-5.3,22.8-13.1
		C1241.4,629.8,1232.6,623,1220.9,622.4"/>
	<path id="XMLID_622_" class="st1" d="M1305.7,626.7c-11.7-0.6-21.9,5.3-22.8,13.1s7.9,14.6,19.6,15.2c11.7,0.6,21.9-5.3,22.8-13.1
		C1326.3,634.1,1317.5,627.3,1305.7,626.7"/>
	<path id="XMLID_621_" class="st1" d="M1390.6,630.9c-11.7-0.6-21.9,5.3-22.8,13.1s7.9,14.6,19.6,15.2c11.7,0.6,21.9-5.3,22.8-13.1
		C1411.1,638.3,1402.3,631.5,1390.6,630.9"/>
	<path id="XMLID_620_" class="st1" d="M1470.4,635.3c-9.5,1-17,6.3-17.7,13c-0.5,4.7,2.4,9,7.4,11.8
		C1463.8,651.9,1467.3,643.7,1470.4,635.3"/>
	<path id="XMLID_619_" class="st1" d="M27,613.4c-4.3-0.2-8.5,0.5-12,1.8c2.8,9,5.9,17.8,9.4,26.6c11.5,0.3,21.3-5.5,22.2-13.1
		C47.5,620.8,38.7,614,27,613.4"/>
	<path id="XMLID_618_" class="st1" d="M111.9,617.6c-11.7-0.6-21.9,5.3-22.8,13.1c-0.9,7.8,7.9,14.7,19.6,15.2
		c11.7,0.6,21.9-5.3,22.8-13.1C132.4,625.1,123.6,618.2,111.9,617.6"/>
	<path id="XMLID_617_" class="st1" d="M196.8,621.9c-11.7-0.6-21.9,5.3-22.8,13.1c-0.9,7.8,7.9,14.7,19.6,15.2
		c11.7,0.6,21.9-5.3,22.8-13.1C217.3,629.3,208.5,622.5,196.8,621.9"/>
	<path id="XMLID_616_" class="st1" d="M281.6,626.1c-11.7-0.6-21.9,5.3-22.8,13.1s7.9,14.7,19.6,15.2c11.7,0.6,21.9-5.3,22.8-13.1
		S293.4,626.7,281.6,626.1"/>
	<path id="XMLID_615_" class="st1" d="M366.5,630.4c-11.7-0.6-21.9,5.3-22.8,13.1s7.9,14.7,19.6,15.2c11.7,0.6,21.9-5.3,22.8-13.1
		C387,637.8,378.2,631,366.5,630.4"/>
	<path id="XMLID_614_" class="st1" d="M451.4,634.6c-11.7-0.6-21.9,5.3-22.8,13.1s7.9,14.6,19.6,15.2c11.7,0.6,21.9-5.3,22.8-13.1
		S463.1,635.2,451.4,634.6"/>
	<path id="XMLID_613_" class="st1" d="M536.3,638.9c-11.7-0.6-21.9,5.3-22.8,13.1c-0.9,7.8,7.9,14.6,19.6,15.2
		c11.7,0.6,21.9-5.3,22.8-13.1S548,639.4,536.3,638.9"/>
	<path id="XMLID_612_" class="st1" d="M621.1,643.1c-11.7-0.6-21.9,5.3-22.8,13.1c-0.9,7.8,7.9,14.6,19.6,15.2
		c11.7,0.6,21.9-5.3,22.8-13.1C641.6,650.5,632.8,643.7,621.1,643.1"/>
	<path id="XMLID_611_" class="st1" d="M706,647.3c-11.7-0.6-21.9,5.3-22.8,13.1c-0.9,7.8,7.9,14.6,19.6,15.2
		c11.7,0.6,21.9-5.3,22.8-13.1C726.5,654.8,717.7,647.9,706,647.3"/>
	<path id="XMLID_610_" class="st1" d="M790.9,651.6c-11.7-0.6-21.9,5.3-22.8,13.1c-0.9,7.8,7.9,14.6,19.6,15.2
		c11.7,0.6,21.9-5.3,22.8-13.1C811.4,659,802.6,652.2,790.9,651.6"/>
	<path id="XMLID_609_" class="st1" d="M875.7,655.8c-11.7-0.6-21.9,5.3-22.8,13.1c-0.9,7.8,7.9,14.6,19.6,15.2
		c11.7,0.6,21.9-5.3,22.8-13.1C896.2,663.2,887.5,656.4,875.7,655.8"/>
	<path id="XMLID_608_" class="st1" d="M960.6,660.1c-11.7-0.6-21.9,5.3-22.8,13.1c-0.9,7.8,7.9,14.7,19.6,15.2
		c11.7,0.6,21.9-5.3,22.8-13.1C981.1,667.5,972.3,660.7,960.6,660.1"/>
	<path id="XMLID_607_" class="st1" d="M1045.5,664.3c-11.7-0.6-21.9,5.3-22.8,13.1c-0.9,7.8,7.9,14.7,19.6,15.2
		c11.7,0.6,21.9-5.3,22.8-13.1C1066,671.7,1057.2,664.9,1045.5,664.3"/>
	<path id="XMLID_606_" class="st1" d="M1130.4,668.6c-11.7-0.6-21.9,5.3-22.8,13.1s7.9,14.7,19.6,15.2c11.7,0.6,21.9-5.3,22.8-13.1
		S1142.1,669.2,1130.4,668.6"/>
	<path id="XMLID_605_" class="st1" d="M1215.2,672.8c-11.7-0.6-21.9,5.3-22.8,13.1s7.9,14.7,19.6,15.2c11.7,0.6,21.9-5.3,22.8-13.1
		S1226.9,673.4,1215.2,672.8"/>
	<path id="XMLID_604_" class="st1" d="M1300.1,677.1c-11.7-0.6-21.9,5.3-22.8,13.1s7.9,14.7,19.6,15.2c11.7,0.6,21.9-5.3,22.8-13.1
		S1311.8,677.6,1300.1,677.1"/>
	<path id="XMLID_603_" class="st1" d="M1385,681.3c-11.7-0.6-21.9,5.3-22.8,13.1s7.9,14.6,19.6,15.2c11.7,0.6,21.9-5.3,22.8-13.1
		S1396.7,681.9,1385,681.3"/>
	<path id="XMLID_602_" class="st1" d="M36.8,669.4c1.4,2.8,2.8,5.6,4.3,8.4C41,674.7,39.4,671.8,36.8,669.4"/>
	<path id="XMLID_601_" class="st1" d="M106.2,668c-11.7-0.6-21.9,5.3-22.8,13.1s7.9,14.6,19.6,15.2c11.7,0.6,21.9-5.3,22.8-13.1
		C126.8,675.4,118,668.6,106.2,668"/>
	<path id="XMLID_600_" class="st1" d="M191.1,672.3c-11.7-0.6-21.9,5.3-22.8,13.1c-0.9,7.8,7.9,14.7,19.6,15.2
		c11.7,0.6,21.9-5.3,22.8-13.1C211.6,679.7,202.8,672.9,191.1,672.3"/>
	<path id="XMLID_599_" class="st1" d="M276,676.5c-11.7-0.6-21.9,5.3-22.8,13.1c-0.9,7.8,7.9,14.7,19.6,15.2
		c11.7,0.6,21.9-5.3,22.8-13.1C296.5,683.9,287.7,677.1,276,676.5"/>
	<path id="XMLID_598_" class="st1" d="M360.9,680.8c-11.7-0.6-21.9,5.3-22.8,13.1s7.9,14.7,19.6,15.2c11.7,0.6,21.9-5.3,22.8-13.1
		S372.6,681.3,360.9,680.8"/>
	<path id="XMLID_597_" class="st1" d="M445.7,685c-11.7-0.6-21.9,5.3-22.8,13.1s7.9,14.7,19.6,15.2c11.7,0.6,21.9-5.3,22.8-13.1
		S457.5,685.6,445.7,685"/>
	<path id="XMLID_596_" class="st1" d="M530.6,689.2c-11.7-0.6-21.9,5.3-22.8,13.1s7.9,14.7,19.6,15.2c11.7,0.6,21.9-5.3,22.8-13.1
		C551.1,696.6,542.3,689.8,530.6,689.2"/>
	<path id="XMLID_595_" class="st1" d="M615.5,693.5c-11.7-0.6-21.9,5.3-22.8,13.1c-0.9,7.8,7.9,14.6,19.6,15.2
		c11.7,0.6,21.9-5.3,22.8-13.1C636,700.9,627.2,694.1,615.5,693.5"/>
	<path id="XMLID_594_" class="st1" d="M700.4,697.7c-11.7-0.6-21.9,5.3-22.8,13.1c-0.9,7.8,7.9,14.6,19.6,15.2
		c11.7,0.6,21.9-5.3,22.8-13.1C720.9,705.1,712.1,698.3,700.4,697.7"/>
	<path id="XMLID_593_" class="st1" d="M785.2,702c-11.7-0.6-21.9,5.3-22.8,13.1c-0.9,7.8,7.9,14.6,19.6,15.2
		c11.7,0.6,21.9-5.3,22.8-13.1C805.7,709.4,796.9,702.6,785.2,702"/>
	<path id="XMLID_592_" class="st1" d="M870.1,706.2c-11.7-0.6-21.9,5.3-22.8,13.1c-0.9,7.8,7.9,14.6,19.6,15.2
		c11.7,0.6,21.9-5.3,22.8-13.1C890.6,713.6,881.8,706.8,870.1,706.2"/>
	<path id="XMLID_591_" class="st1" d="M955,710.5c-11.7-0.6-21.9,5.3-22.8,13.1c-0.9,7.8,7.9,14.7,19.6,15.2
		c11.7,0.6,21.9-5.3,22.8-13.1C975.5,717.9,966.7,711,955,710.5"/>
	<path id="XMLID_590_" class="st1" d="M1039.8,714.7c-11.7-0.6-21.9,5.3-22.8,13.1c-0.9,7.8,7.9,14.7,19.6,15.2
		c11.7,0.6,21.9-5.3,22.8-13.1C1060.3,722.1,1051.6,715.3,1039.8,714.7"/>
	<path id="XMLID_589_" class="st1" d="M1124.7,718.9c-11.7-0.6-21.9,5.3-22.8,13.1s7.9,14.7,19.6,15.2c11.7,0.6,21.9-5.3,22.8-13.1
		C1145.2,726.3,1136.4,719.5,1124.7,718.9"/>
	<path id="XMLID_588_" class="st1" d="M1209.6,723.2c-11.7-0.6-21.9,5.3-22.8,13.1s7.9,14.7,19.6,15.2c11.7,0.6,21.9-5.3,22.8-13.1
		C1230.1,730.6,1221.3,723.8,1209.6,723.2"/>
	<path id="XMLID_587_" class="st1" d="M1294.5,727.4c-11.7-0.6-21.9,5.3-22.8,13.1s7.9,14.6,19.6,15.2c11.7,0.6,21.9-5.3,22.8-13.1
		C1315,734.8,1306.2,728,1294.5,727.4"/>
	<path id="XMLID_586_" class="st1" d="M1379.3,731.7c-11.7-0.6-21.9,5.3-22.8,13.1s7.9,14.6,19.6,15.2c11.7,0.6,21.9-5.3,22.8-13.1
		S1391,732.3,1379.3,731.7"/>
	<path id="XMLID_585_" class="st1" d="M100.6,718.4c-11.7-0.6-21.9,5.3-22.8,13.1c-0.2,2.1,0.2,4.2,1.3,6c0.7,1,1.4,1.9,2.2,2.8
		c3.5,3.5,9.3,6,16.2,6.4c11.7,0.6,21.9-5.3,22.8-13.1C121.1,725.8,112.3,719,100.6,718.4"/>
	<path id="XMLID_584_" class="st1" d="M185.5,722.6c-11.7-0.6-21.9,5.3-22.8,13.1c-0.9,7.8,7.9,14.6,19.6,15.2
		c11.7,0.6,21.9-5.3,22.8-13.1C206,730,197.2,723.2,185.5,722.6"/>
	<path id="XMLID_583_" class="st1" d="M270.3,726.9c-11.7-0.6-21.9,5.3-22.8,13.1c-0.9,7.8,7.9,14.6,19.6,15.2
		c11.7,0.6,21.9-5.3,22.8-13.1C290.8,734.3,282.1,727.5,270.3,726.9"/>
	<path id="XMLID_582_" class="st1" d="M355.2,731.1c-11.7-0.6-21.9,5.3-22.8,13.1s7.9,14.6,19.6,15.2c11.7,0.6,21.9-5.3,22.8-13.1
		S366.9,731.7,355.2,731.1"/>
	<path id="XMLID_581_" class="st1" d="M440.1,735.4c-11.7-0.6-21.9,5.3-22.8,13.1s7.9,14.6,19.6,15.2c11.7,0.6,21.9-5.3,22.8-13.1
		C460.6,742.8,451.8,736,440.1,735.4"/>
	<path id="XMLID_580_" class="st1" d="M525,739.6c-11.7-0.6-21.9,5.3-22.8,13.1s7.9,14.6,19.6,15.2c11.7,0.6,21.9-5.3,22.8-13.1
		C545.5,747,536.7,740.2,525,739.6"/>
	<path id="XMLID_579_" class="st1" d="M609.8,743.9c-11.7-0.6-21.9,5.3-22.8,13.1c-0.9,7.8,7.9,14.6,19.6,15.2
		c11.7,0.6,21.9-5.3,22.8-13.1C630.3,751.3,621.5,744.4,609.8,743.9"/>
	<path id="XMLID_578_" class="st1" d="M694.7,748.1c-11.7-0.6-21.9,5.3-22.8,13.1c-0.9,7.8,7.9,14.6,19.6,15.2
		c11.7,0.6,21.9-5.3,22.8-13.1C715.2,755.5,706.4,748.7,694.7,748.1"/>
	<path id="XMLID_577_" class="st1" d="M779.6,752.3c-11.7-0.6-21.9,5.3-22.8,13.1c-0.9,7.8,7.9,14.6,19.6,15.2
		c11.7,0.6,21.9-5.3,22.8-13.1C800.1,759.8,791.3,752.9,779.6,752.3"/>
	<path id="XMLID_576_" class="st1" d="M864.4,756.6c-11.7-0.6-21.9,5.3-22.8,13.1c-0.9,7.8,7.9,14.6,19.6,15.2
		c11.7,0.6,21.9-5.3,22.8-13.1C885,764,876.2,757.2,864.4,756.6"/>
	<path id="XMLID_575_" class="st1" d="M949.3,760.8c-11.7-0.6-21.9,5.3-22.8,13.1c-0.9,7.8,7.9,14.6,19.6,15.2
		c11.7,0.6,21.9-5.3,22.8-13.1C969.8,768.2,961,761.4,949.3,760.8"/>
	<path id="XMLID_574_" class="st1" d="M1034.2,765.1c-11.7-0.6-21.9,5.3-22.8,13.1c-0.9,7.8,7.9,14.6,19.6,15.2
		c11.7,0.6,21.9-5.3,22.8-13.1C1054.7,772.5,1045.9,765.7,1034.2,765.1"/>
	<path id="XMLID_573_" class="st1" d="M1119.1,769.3c-11.7-0.6-21.9,5.3-22.8,13.1s7.9,14.6,19.6,15.2c11.7,0.6,21.9-5.3,22.8-13.1
		S1130.8,769.9,1119.1,769.3"/>
	<path id="XMLID_572_" class="st1" d="M1203.9,773.6c-11.7-0.6-21.9,5.3-22.8,13.1s7.9,14.6,19.6,15.2c11.7,0.6,21.9-5.3,22.8-13.1
		S1215.7,774.1,1203.9,773.6"/>
	<path id="XMLID_571_" class="st1" d="M1288.8,777.8c-11.7-0.6-21.9,5.3-22.8,13.1s7.9,14.6,19.6,15.2c11.7,0.6,21.9-5.3,22.8-13.1
		S1300.5,778.4,1288.8,777.8"/>
	<path id="XMLID_570_" class="st1" d="M1373.7,782c-11.7-0.6-21.9,5.3-22.8,13.1c-0.3,3,0.8,5.9,2.9,8.3c7.5-7,14.7-14,21.6-21.3
		C1374.8,782.1,1374.3,782.1,1373.7,782"/>
	<path id="XMLID_569_" class="st1" d="M108.7,773.1c1.6,1.7,3.1,3.4,4.7,5C112.4,776.3,110.8,774.6,108.7,773.1"/>
	<path id="XMLID_568_" class="st1" d="M179.8,773c-11.7-0.6-21.9,5.3-22.8,13.1c-0.9,7.8,7.9,14.6,19.6,15.2
		c11.7,0.6,21.9-5.3,22.8-13.1C200.3,780.4,191.5,773.6,179.8,773"/>
	<path id="XMLID_567_" class="st1" d="M264.7,777.3c-11.7-0.6-21.9,5.3-22.8,13.1c-0.9,7.8,7.9,14.6,19.6,15.2
		c11.7,0.6,21.9-5.3,22.8-13.1C285.2,784.7,276.4,777.9,264.7,777.3"/>
	<path id="XMLID_566_" class="st1" d="M349.6,781.5c-11.7-0.6-21.9,5.3-22.8,13.1s7.9,14.6,19.6,15.2s21.9-5.3,22.8-13.1
		S361.3,782.1,349.6,781.5"/>
	<path id="XMLID_565_" class="st1" d="M434.4,785.8c-11.7-0.6-21.9,5.3-22.8,13.1s7.9,14.6,19.6,15.2s21.9-5.3,22.8-13.1
		S446.2,786.3,434.4,785.8"/>
	<path id="XMLID_564_" class="st1" d="M519.3,790c-11.7-0.6-21.9,5.3-22.8,13.1s7.9,14.6,19.6,15.2c11.7,0.6,21.9-5.3,22.8-13.1
		C539.8,797.4,531,790.6,519.3,790"/>
	<path id="XMLID_563_" class="st1" d="M604.2,794.2c-11.7-0.6-21.9,5.3-22.8,13.1c-0.9,7.8,7.9,14.6,19.6,15.2
		c11.7,0.6,21.9-5.3,22.8-13.1C624.7,801.6,615.9,794.8,604.2,794.2"/>
	<path id="XMLID_562_" class="st1" d="M689.1,798.5c-11.7-0.6-21.9,5.3-22.8,13.1s7.9,14.6,19.6,15.2c11.7,0.6,21.9-5.3,22.8-13.1
		C709.6,805.9,700.8,799.1,689.1,798.5"/>
	<path id="XMLID_561_" class="st1" d="M773.9,802.7c-11.7-0.6-21.9,5.3-22.8,13.1s7.9,14.6,19.6,15.2c11.7,0.6,21.9-5.3,22.8-13.1
		C794.4,810.1,785.6,803.3,773.9,802.7"/>
	<path id="XMLID_560_" class="st1" d="M858.8,807c-11.7-0.6-21.9,5.3-22.8,13.1c-0.9,7.8,7.9,14.6,19.6,15.2
		c11.7,0.6,21.9-5.3,22.8-13.1C879.3,814.4,870.5,807.6,858.8,807"/>
	<path id="XMLID_559_" class="st1" d="M943.7,811.2c-11.7-0.6-21.9,5.3-22.8,13.1c-0.9,7.8,7.9,14.6,19.6,15.2
		c11.7,0.6,21.9-5.3,22.8-13.1C964.2,818.6,955.4,811.8,943.7,811.2"/>
	<path id="XMLID_558_" class="st1" d="M1028.5,815.5c-11.7-0.6-21.9,5.3-22.8,13.1c-0.9,7.8,7.9,14.6,19.6,15.2
		c11.7,0.6,21.9-5.3,22.8-13.1C1049,822.9,1040.3,816,1028.5,815.5"/>
	<path id="XMLID_557_" class="st1" d="M1113.4,819.7c-11.7-0.6-21.9,5.3-22.8,13.1s7.9,14.6,19.6,15.2c11.7,0.6,21.9-5.3,22.8-13.1
		C1133.9,827.1,1125.1,820.3,1113.4,819.7"/>
	<path id="XMLID_556_" class="st1" d="M1198.3,823.9c-11.7-0.6-21.9,5.3-22.8,13.1s7.9,14.6,19.6,15.2c11.7,0.6,21.9-5.3,22.8-13.1
		S1210,824.5,1198.3,823.9"/>
	<path id="XMLID_555_" class="st1" d="M1283.2,828.2c-11.7-0.6-21.9,5.3-22.8,13.1s7.9,14.6,19.6,15.2c3.3,0.2,6.6-0.2,9.5-1
		c4.2-3,8.3-6,12.4-9c0.5-1,0.8-2,0.9-3.1C1303.7,835.6,1294.9,828.8,1283.2,828.2"/>
	<path id="XMLID_554_" class="st1" d="M174.2,823.4c-4-0.2-7.8,0.3-11.1,1.5c8.6,7.2,17.5,14.2,26.7,21.1c2.3-2.1,3.7-4.6,4-7.3
		C194.7,830.8,185.9,824,174.2,823.4"/>
	<path id="XMLID_553_" class="st1" d="M259,827.6c-11.7-0.6-21.9,5.3-22.8,13.1c-0.9,7.8,7.9,14.6,19.6,15.2
		c11.7,0.6,21.9-5.3,22.8-13.1C279.5,835.1,270.8,828.2,259,827.6"/>
	<path id="XMLID_552_" class="st1" d="M343.9,831.9c-11.7-0.6-21.9,5.3-22.8,13.1s7.9,14.6,19.6,15.2c11.7,0.6,21.9-5.3,22.8-13.1
		C364.4,839.3,355.6,832.5,343.9,831.9"/>
	<path id="XMLID_551_" class="st1" d="M428.8,836.1c-11.7-0.6-21.9,5.3-22.8,13.1s7.9,14.6,19.6,15.2c11.7,0.6,21.9-5.3,22.8-13.1
		S440.5,836.7,428.8,836.1"/>
	<path id="XMLID_550_" class="st1" d="M513.7,840.4c-11.7-0.6-21.9,5.3-22.8,13.1s7.9,14.6,19.6,15.2c11.7,0.6,21.9-5.3,22.8-13.1
		C534.2,847.8,525.4,841,513.7,840.4"/>
	<path id="XMLID_549_" class="st1" d="M598.5,844.6c-11.7-0.6-21.9,5.3-22.8,13.1c-0.9,7.8,7.9,14.6,19.6,15.2
		c11.7,0.6,21.9-5.3,22.8-13.1C619,852,610.3,845.2,598.5,844.6"/>
	<path id="XMLID_548_" class="st1" d="M683.4,848.9c-11.7-0.6-21.9,5.3-22.8,13.1c-0.9,7.8,7.9,14.6,19.6,15.2
		c11.7,0.6,21.9-5.3,22.8-13.1C703.9,856.3,695.1,849.4,683.4,848.9"/>
	<path id="XMLID_547_" class="st1" d="M768.3,853.1c-11.7-0.6-21.9,5.3-22.8,13.1c-0.9,7.8,7.9,14.6,19.6,15.2
		c11.7,0.6,21.9-5.3,22.8-13.1C788.8,860.5,780,853.7,768.3,853.1"/>
	<path id="XMLID_546_" class="st1" d="M853.1,857.3c-11.7-0.6-21.9,5.3-22.8,13.1c-0.9,7.8,7.9,14.6,19.6,15.2
		c11.7,0.6,21.9-5.3,22.8-13.1C873.7,864.8,864.9,857.9,853.1,857.3"/>
	<path id="XMLID_545_" class="st1" d="M938,861.6c-11.7-0.6-21.9,5.3-22.8,13.1c-0.9,7.8,7.9,14.6,19.6,15.2
		c11.7,0.6,21.9-5.3,22.8-13.1S949.7,862.2,938,861.6"/>
	<path id="XMLID_544_" class="st1" d="M1022.9,865.8c-11.7-0.6-21.9,5.3-22.8,13.1c-0.9,7.8,7.9,14.6,19.6,15.2
		c11.7,0.6,21.9-5.3,22.8-13.1S1034.6,866.4,1022.9,865.8"/>
	<path id="XMLID_543_" class="st1" d="M1107.8,870.1c-11.7-0.6-21.9,5.3-22.8,13.1s7.9,14.6,19.6,15.2c11.7,0.6,21.9-5.3,22.8-13.1
		S1119.5,870.7,1107.8,870.1"/>
	<path id="XMLID_542_" class="st1" d="M1192.6,874.3c-11.7-0.6-21.9,5.3-22.8,13.1s7.9,14.6,19.6,15.2c11.7,0.6,21.9-5.3,22.8-13.1
		S1204.4,874.9,1192.6,874.3"/>
	<path id="XMLID_541_" class="st1" d="M253.4,878c-4.8-0.2-9.3,0.6-13,2.2c10,6.2,20.3,12.2,30.8,17.9c1-1.5,1.7-3.2,1.9-4.9
		C273.9,885.4,265.1,878.6,253.4,878"/>
	<path id="XMLID_540_" class="st1" d="M338.3,882.3c-11.7-0.6-21.9,5.3-22.8,13.1s7.9,14.7,19.6,15.2c11.7,0.6,21.9-5.3,22.8-13.1
		S350,882.9,338.3,882.3"/>
	<path id="XMLID_539_" class="st1" d="M423.1,886.5c-11.7-0.6-21.9,5.3-22.8,13.1s7.9,14.6,19.6,15.2c11.7,0.6,21.9-5.3,22.8-13.1
		S434.9,887.1,423.1,886.5"/>
	<path id="XMLID_538_" class="st1" d="M508,890.8c-11.7-0.6-21.9,5.3-22.8,13.1s7.9,14.6,19.6,15.2c11.7,0.6,21.9-5.3,22.8-13.1
		C528.5,898.2,519.7,891.3,508,890.8"/>
	<path id="XMLID_537_" class="st1" d="M592.9,895c-11.7-0.6-21.9,5.3-22.8,13.1c-0.9,7.8,7.9,14.6,19.6,15.2
		c11.7,0.6,21.9-5.3,22.8-13.1C613.4,902.4,604.6,895.6,592.9,895"/>
	<path id="XMLID_536_" class="st1" d="M677.8,899.2c-11.7-0.6-21.9,5.3-22.8,13.1c-0.9,7.8,7.9,14.6,19.6,15.2
		c11.7,0.6,21.9-5.3,22.8-13.1C698.3,906.6,689.5,899.8,677.8,899.2"/>
	<path id="XMLID_366_" class="st1" d="M762.6,903.5c-11.7-0.6-21.9,5.3-22.8,13.1c-0.9,7.8,7.9,14.6,19.6,15.2
		c11.7,0.6,21.9-5.3,22.8-13.1C783.1,910.9,774.3,904.1,762.6,903.5"/>
	<path id="XMLID_365_" class="st1" d="M847.5,907.7c-11.7-0.6-21.9,5.3-22.8,13.1c-0.9,7.8,7.9,14.7,19.6,15.2
		c11.7,0.6,21.9-5.3,22.8-13.1C868,915.1,859.2,908.3,847.5,907.7"/>
	<path id="XMLID_364_" class="st1" d="M932.4,912c-11.7-0.6-21.9,5.3-22.8,13.1c-0.9,7.8,7.9,14.6,19.6,15.2
		c11.7,0.6,21.9-5.3,22.8-13.1C952.9,919.4,944.1,912.6,932.4,912"/>
	<path id="XMLID_363_" class="st1" d="M1017.2,916.2c-11.7-0.6-21.9,5.3-22.8,13.1c-0.9,7.8,7.9,14.7,19.6,15.2
		c11.7,0.6,21.9-5.3,22.8-13.1S1029,916.8,1017.2,916.2"/>
	<path id="XMLID_362_" class="st1" d="M1102.1,920.5c-11.7-0.6-21.9,5.3-22.8,13.1s7.9,14.6,19.6,15.2c11.7,0.6,21.9-5.3,22.8-13.1
		S1113.8,921,1102.1,920.5"/>
	<path id="XMLID_361_" class="st1" d="M502.4,941.1c-11.7-0.6-21.9,5.3-22.8,13.1s7.9,14.7,19.6,15.2c11.7,0.6,21.9-5.3,22.8-13.1
		C522.9,948.5,514.1,941.7,502.4,941.1"/>
	<path id="XMLID_360_" class="st1" d="M587.2,945.4c-11.7-0.6-21.9,5.3-22.8,13.1c-0.9,7.8,7.9,14.7,19.6,15.2
		c11.7,0.6,21.9-5.3,22.8-13.1C607.7,952.8,599,946,587.2,945.4"/>
	<path id="XMLID_359_" class="st1" d="M672.1,949.6c-11.7-0.6-21.9,5.3-22.8,13.1c-0.9,7.8,7.9,14.7,19.6,15.2
		c11.7,0.6,21.9-5.3,22.8-13.1C692.6,957,683.8,950.2,672.1,949.6"/>
	<path id="XMLID_358_" class="st1" d="M757,953.9c-11.7-0.6-21.9,5.3-22.8,13.1c-0.9,7.8,7.9,14.7,19.6,15.2
		c11.7,0.6,21.9-5.3,22.8-13.1C777.5,961.3,768.7,954.4,757,953.9"/>
	<path id="XMLID_357_" class="st1" d="M841.9,958.1c-11.7-0.6-21.9,5.3-22.8,13.1c-0.9,7.8,7.9,14.7,19.6,15.2
		c11.7,0.6,21.9-5.3,22.8-13.1S853.6,958.7,841.9,958.1"/>
	<path id="XMLID_356_" class="st1" d="M926.7,962.3c-11.7-0.6-21.9,5.3-22.8,13.1c-0.9,7.8,7.9,14.7,19.6,15.2
		c11.7,0.6,21.9-5.3,22.8-13.1C947.2,969.8,938.4,962.9,926.7,962.3"/>
	<path id="XMLID_316_" class="st1" d="M1011.6,966.6c-11.7-0.6-21.9,5.3-22.8,13.1c-0.2,1.8,0.1,3.6,0.9,5.2
		c13.4-3.1,26.7-6.4,39.7-10C1026.3,970.3,1019.6,967,1011.6,966.6"/>
	<path id="XMLID_315_" class="st1" d="M581.6,995.8c-4.7-0.2-9.1,0.6-12.8,2.1c9.6,1.6,19.3,3,29,4.3
		C594.3,998.6,588.5,996.1,581.6,995.8"/>
	<path id="XMLID_314_" class="st1" d="M666.5,1000c-8.7-0.4-16.6,2.7-20.4,7.6c13,1.2,26.1,2.1,39.4,2.8
		C683.1,1004.8,675.7,1000.5,666.5,1000"/>
	<path id="XMLID_311_" class="st1" d="M751.3,1004.2c-8.8-0.4-16.8,2.8-20.5,7.7c12.7,0.2,25.3,0.2,37.8-0.1
		C765.3,1007.6,759,1004.6,751.3,1004.2"/>
	<path id="XMLID_310_" class="st1" d="M836.2,1008.5c-2.9-0.1-5.6,0.1-8.2,0.7c2.8-0.2,5.6-0.4,8.4-0.7
		C836.4,1008.5,836.3,1008.5,836.2,1008.5"/>
</g>
<path id="XMLID_3270_" class="st2" d="M1981.4,489.3c-34.1,201.8-258.2,357.9-458.2,424.1c-208.8,71.3-393.5,52.9-552,23.5
	c-159-36.6-331.1-72.9-511-139.8C286.6,731.8,105.2,635.9,69.8,517c-44.6-119.8,73.1-203.5,248.8-255.9
	c177.8-54.8,413.5-78.4,652.6-132c238.5-45,487-97.6,693.7-43C1867,133.4,2027.3,287.9,1981.4,489.3z"/>
</svg>
